# xmcd CD database file generated by Grip 3.3.0
# 
# Track frame offsets:
#       150
#       12009
#       29713
#       46007
#       65289
#       86307
#       104037
#       117899
#       134217
#       150564
#       163422
#       178208
#       203933
# 
# Disc length: 2942 seconds
# 
# Revision: 1
# Processed by: cddbd v1.5.1PL2 Copyright (c) Steve Scherf et al.
# Submitted via: Grip 3.3.0
# 
DISCID=b50b7c0d
DTITLE=Bez iluze - Stereofonni dojem
DYEAR=1999
DGENRE=Rock
TTITLE0=Vanocka
TTITLE1=Slava
TTITLE2=Maranatha
TTITLE3=Doufam
TTITLE4=Jediny
TTITLE5=Starej chlap
TTITLE6=Smysl veci
TTITLE7=Funky
TTITLE8=Telo
TTITLE9=Dostatek
TTITLE10=Adam a Eva
TTITLE11=Lezim
TTITLE12=Novej den
EXTD=
EXTT0=
EXTT1=
EXTT2=
EXTT3=
EXTT4=
EXTT5=
EXTT6=
EXTT7=
EXTT8=
EXTT9=
EXTT10=
EXTT11=
EXTT12=
PLAYORDER=
